<svg xmlns="http://www.w3.org/2000/svg" xmlns:xlink="http://www.w3.org/1999/xlink" width="500" height="500" preserveAspectRatio="xMidYMid meet" version="1.0" viewBox="0 0 375 375" zoomAndPan="magnify"><defs><clipPath id="id1"><path d="M 290 0 L 375 0 L 375 73 L 290 73 Z M 290 0" clip-rule="nonzero"/></clipPath><clipPath id="id2"><path d="M 290.816406 0 L 372.9375 -7.890625 L 380.613281 71.992188 L 298.488281 79.882812 Z M 290.816406 0" clip-rule="nonzero"/></clipPath><clipPath id="id3"><path d="M 290.816406 0 L 372.9375 -7.890625 L 380.613281 71.992188 L 298.488281 79.882812 Z M 290.816406 0" clip-rule="nonzero"/></clipPath><clipPath id="id4"><path d="M 290.859375 -0.00390625 L 372.945312 -7.890625 L 380.628906 72.089844 L 298.542969 79.976562 Z M 290.859375 -0.00390625" clip-rule="nonzero"/></clipPath><clipPath id="id5"><path d="M 290.859375 -0.00390625 L 372.898438 -7.886719 L 380.570312 71.984375 L 298.53125 79.867188 Z M 290.859375 -0.00390625" clip-rule="nonzero"/></clipPath><clipPath id="id6"><path d="M 297 4 L 366 4 L 366 72 L 297 72 Z M 297 4" clip-rule="nonzero"/></clipPath><clipPath id="id7"><path d="M 290.816406 0 L 372.9375 -7.890625 L 380.613281 71.992188 L 298.488281 79.882812 Z M 290.816406 0" clip-rule="nonzero"/></clipPath><clipPath id="id8"><path d="M 290.816406 0 L 372.9375 -7.890625 L 380.613281 71.992188 L 298.488281 79.882812 Z M 290.816406 0" clip-rule="nonzero"/></clipPath></defs><g fill="#000" fill-opacity="1"><g><g><path d="M 4.886719 9.378906 C 8.597656 5.667969 12.503906 2.34375 16.21875 -1.367188 C 55.105469 -39.667969 92.035156 -80.117188 130.921875 -118.21875 C 133.851562 -121.148438 137.171875 -123.496094 140.886719 -125.449219 C 165.898438 -137.5625 191.300781 -149.289062 217.289062 -160.035156 C 229.597656 -165.117188 242.105469 -170 254.609375 -174.886719 C 254.804688 -174.691406 255 -174.300781 255.195312 -174.105469 C 251.484375 -167.460938 247.574219 -161.011719 243.863281 -154.367188 C 218.070312 -108.644531 196.574219 -60.574219 174.496094 -12.898438 C 171.367188 -6.253906 172.738281 -3.515625 178.988281 -1.757812 C 182.507812 -0.78125 184.65625 -2.539062 186.804688 -5.082031 C 192.863281 -12.703125 197.550781 -21.300781 202.4375 -29.898438 C 231.945312 -81.679688 261.058594 -133.851562 291.738281 -185.046875 C 293.105469 -187 294.277344 -188.953125 297.011719 -189.738281 C 307.367188 -193.058594 317.921875 -196.183594 328.667969 -198.726562 C 330.425781 -199.117188 332.183594 -199.507812 334.140625 -198.921875 C 335.703125 -198.335938 337.851562 -197.355469 338.828125 -199.507812 C 339.804688 -201.65625 338.242188 -203.21875 336.679688 -204.585938 C 332.183594 -208.105469 327.105469 -208.691406 321.632812 -208.105469 C 315.769531 -207.324219 310.105469 -206.34375 303.851562 -205.367188 C 305.023438 -207.519531 305.804688 -209.082031 306.585938 -210.644531 C 313.425781 -222.757812 320.070312 -235.070312 325.738281 -247.769531 C 330.035156 -258.128906 334.726562 -268.289062 336.484375 -279.425781 C 337.265625 -284.3125 335.703125 -288.414062 331.792969 -291.347656 C 321.4375 -299.359375 313.621094 -299.554688 304.632812 -294.472656 C 286.65625 -284.117188 271.023438 -270.828125 255 -257.738281 C 211.035156 -222.171875 170.585938 -182.703125 129.550781 -143.816406 C 126.621094 -140.886719 123.300781 -138.539062 119.585938 -136.78125 C 100.632812 -127.207031 81.875 -116.851562 63.898438 -105.324219 C 50.414062 -96.722656 37.515625 -87.34375 26.378906 -75.621094 C 21.496094 -70.734375 22.472656 -67.21875 29.113281 -64.679688 C 32.632812 -63.507812 35.5625 -64.09375 38.496094 -66.046875 C 47.484375 -72.105469 56.472656 -77.964844 65.265625 -83.828125 C 67.023438 -85 68.585938 -85.976562 70.734375 -87.34375 C 69.953125 -84.609375 68.390625 -83.632812 67.21875 -82.460938 C 48.65625 -63.898438 29.703125 -45.917969 12.113281 -26.574219 C 4.496094 -18.367188 -2.734375 -9.769531 -8.597656 -0.195312 C -9.378906 1.367188 -10.941406 2.929688 -10.160156 4.886719 C -8.207031 9.183594 0.976562 13.484375 4.886719 9.378906 Z M 306.585938 -271.023438 C 302.484375 -259.496094 297.597656 -249.335938 292.519531 -239.367188 C 285.484375 -225.691406 277.667969 -212.207031 270.046875 -198.921875 C 268.484375 -196.574219 266.921875 -195.207031 264.183594 -194.425781 C 235.460938 -186.023438 207.324219 -176.058594 179.574219 -164.335938 C 185.242188 -176.644531 284.507812 -260.277344 306.585938 -271.023438 Z M 306.585938 -271.023438" transform="translate(13.295618, 381.473011)"/></g></g></g><g clip-path="url(#id1)"><g clip-path="url(#id2)"><g clip-path="url(#id3)"><g clip-path="url(#id4)"><g clip-path="url(#id5)"><path fill="#6C5CE7" fill-opacity="1" fill-rule="nonzero" d="M 365.050781 72.101562 C 354.542969 71.019531 317.644531 64.363281 306.859375 37.699219 C 298.457031 16.933594 290.859375 -0.00390625 290.859375 -0.00390625 C 290.859375 -0.00390625 327.667969 4.003906 342.339844 24.226562 C 357.015625 44.445312 360.199219 67.273438 366.570312 69.980469 C 370.253906 71.539062 378.878906 70.28125 378.878906 70.28125 L 380.550781 71.789062 C 380.550781 71.789062 375.5625 73.183594 365.050781 72.101562"/></g></g></g></g></g><g clip-path="url(#id6)"><g clip-path="url(#id7)"><g clip-path="url(#id8)"><path fill="#F7F6FE" fill-opacity="1" fill-rule="nonzero" d="M 332.378906 23.324219 C 332.375 23.3125 332.367188 23.296875 332.363281 23.285156 C 332.367188 23.296875 332.375 23.308594 332.378906 23.324219 Z M 332.351562 23.21875 C 332.367188 23.171875 332.4375 23.117188 332.429688 23.121094 L 332.207031 23.21875 C 332.199219 23.222656 332.285156 23.207031 332.328125 23.230469 C 332.34375 23.242188 332.355469 23.261719 332.363281 23.285156 C 332.355469 23.261719 332.347656 23.242188 332.351562 23.21875 Z M 365.640625 71.101562 C 365.640625 71.101562 364.242188 70.507812 361.878906 69.300781 C 360.695312 68.695312 359.273438 67.9375 357.667969 67.019531 C 356.0625 66.097656 354.269531 65.027344 352.367188 63.773438 C 351.265625 63.050781 350.125 62.269531 348.957031 61.4375 C 348.902344 61.453125 348.839844 61.46875 348.765625 61.488281 C 348.617188 61.53125 348.4375 61.582031 348.234375 61.636719 C 348.027344 61.695312 347.796875 61.765625 347.535156 61.8125 C 347.28125 61.867188 347 61.929688 346.707031 61.992188 C 346.414062 62.058594 346.09375 62.085938 345.769531 62.136719 C 345.605469 62.160156 345.441406 62.1875 345.273438 62.207031 C 345.101562 62.21875 344.933594 62.230469 344.761719 62.242188 C 344.585938 62.253906 344.414062 62.269531 344.238281 62.28125 C 344.066406 62.28125 343.890625 62.28125 343.714844 62.28125 C 343.539062 62.277344 343.363281 62.285156 343.1875 62.277344 C 343.015625 62.261719 342.839844 62.25 342.667969 62.234375 C 342.324219 62.21875 341.988281 62.144531 341.664062 62.097656 C 341.5 62.074219 341.347656 62.023438 341.191406 61.988281 C 341.039062 61.953125 340.886719 61.921875 340.746094 61.867188 C 340.601562 61.820312 340.464844 61.773438 340.328125 61.730469 C 340.195312 61.679688 340.070312 61.621094 339.949219 61.574219 C 339.828125 61.527344 339.714844 61.46875 339.609375 61.410156 C 339.503906 61.355469 339.402344 61.308594 339.3125 61.25 C 339.21875 61.195312 339.136719 61.144531 339.058594 61.09375 C 338.980469 61.039062 338.914062 60.992188 338.851562 60.945312 C 338.730469 60.855469 338.636719 60.777344 338.578125 60.722656 C 338.515625 60.667969 338.488281 60.632812 338.488281 60.632812 C 338.488281 60.632812 338.515625 60.664062 338.578125 60.71875 C 338.640625 60.773438 338.734375 60.847656 338.855469 60.9375 C 338.921875 60.980469 338.992188 61.027344 339.066406 61.082031 C 339.144531 61.128906 339.230469 61.175781 339.324219 61.230469 C 339.410156 61.289062 339.519531 61.332031 339.625 61.386719 C 339.730469 61.4375 339.84375 61.492188 339.964844 61.539062 C 340.085938 61.585938 340.210938 61.636719 340.34375 61.6875 C 340.480469 61.726562 340.617188 61.769531 340.761719 61.8125 C 340.902344 61.863281 341.054688 61.890625 341.207031 61.925781 C 341.359375 61.957031 341.515625 62 341.675781 62.023438 C 342 62.0625 342.332031 62.128906 342.675781 62.132812 C 342.847656 62.144531 343.019531 62.15625 343.191406 62.164062 C 343.367188 62.167969 343.539062 62.160156 343.710938 62.160156 C 343.886719 62.15625 344.0625 62.152344 344.234375 62.148438 C 344.40625 62.132812 344.578125 62.117188 344.75 62.097656 C 344.917969 62.082031 345.085938 62.066406 345.253906 62.050781 C 345.421875 62.027344 345.582031 62 345.746094 61.972656 C 346.066406 61.914062 346.378906 61.882812 346.667969 61.804688 C 346.960938 61.738281 347.234375 61.671875 347.488281 61.613281 C 347.746094 61.558594 347.972656 61.484375 348.171875 61.425781 C 348.378906 61.363281 348.554688 61.308594 348.699219 61.265625 C 348.703125 61.265625 348.707031 61.261719 348.714844 61.261719 C 345.917969 59.246094 342.972656 56.910156 340.085938 54.234375 C 338.878906 53.105469 337.683594 51.917969 336.519531 50.675781 C 336.253906 50.84375 335.445312 51.332031 334.238281 51.761719 C 333.863281 51.890625 333.453125 52.023438 333.011719 52.125 C 332.570312 52.234375 332.101562 52.324219 331.613281 52.382812 C 331.121094 52.449219 330.609375 52.46875 330.089844 52.472656 C 329.574219 52.460938 329.046875 52.433594 328.527344 52.351562 C 328.003906 52.28125 327.492188 52.160156 326.992188 52.023438 C 326.742188 51.957031 326.503906 51.867188 326.261719 51.789062 C 326.023438 51.703125 325.792969 51.609375 325.5625 51.519531 C 325.335938 51.421875 325.121094 51.3125 324.90625 51.214844 C 324.691406 51.113281 324.492188 50.996094 324.292969 50.890625 C 324.09375 50.789062 323.910156 50.667969 323.726562 50.554688 C 323.550781 50.441406 323.371094 50.339844 323.214844 50.222656 C 322.894531 49.996094 322.59375 49.792969 322.351562 49.589844 C 322.101562 49.390625 321.878906 49.222656 321.710938 49.066406 C 321.371094 48.761719 321.171875 48.589844 321.171875 48.589844 C 321.171875 48.589844 321.371094 48.761719 321.71875 49.058594 C 321.886719 49.210938 322.113281 49.378906 322.363281 49.570312 C 322.613281 49.773438 322.910156 49.96875 323.234375 50.191406 C 323.394531 50.304688 323.574219 50.40625 323.753906 50.515625 C 323.933594 50.625 324.117188 50.742188 324.320312 50.839844 C 324.519531 50.941406 324.71875 51.058594 324.933594 51.152344 C 325.148438 51.25 325.367188 51.351562 325.59375 51.445312 C 325.820312 51.53125 326.054688 51.625 326.289062 51.707031 C 326.53125 51.78125 326.769531 51.863281 327.019531 51.929688 C 327.515625 52.058594 328.027344 52.171875 328.542969 52.230469 C 329.058594 52.304688 329.582031 52.324219 330.09375 52.328125 C 330.605469 52.316406 331.105469 52.289062 331.589844 52.21875 C 332.074219 52.152344 332.535156 52.058594 332.96875 51.945312 C 333.398438 51.835938 333.800781 51.699219 334.167969 51.570312 C 334.894531 51.296875 335.476562 51.007812 335.871094 50.78125 C 336.089844 50.660156 336.25 50.5625 336.347656 50.496094 C 335.558594 49.648438 334.785156 48.773438 334.027344 47.875 C 332.101562 45.582031 330.304688 43.113281 328.738281 40.503906 C 327.953125 39.199219 327.230469 37.859375 326.574219 36.488281 C 326.539062 36.421875 326.507812 36.351562 326.472656 36.285156 C 326.398438 36.347656 326.296875 36.417969 326.167969 36.507812 C 326.089844 36.554688 326.007812 36.605469 325.914062 36.664062 C 325.820312 36.710938 325.714844 36.761719 325.605469 36.820312 C 325.496094 36.878906 325.371094 36.921875 325.246094 36.972656 C 325.117188 37.023438 324.980469 37.078125 324.832031 37.117188 C 324.6875 37.15625 324.535156 37.203125 324.378906 37.242188 C 324.21875 37.273438 324.054688 37.300781 323.882812 37.332031 C 323.714844 37.371094 323.535156 37.371094 323.355469 37.386719 C 323.171875 37.394531 322.988281 37.429688 322.800781 37.414062 C 322.425781 37.402344 322.035156 37.40625 321.644531 37.339844 C 321.449219 37.3125 321.253906 37.292969 321.058594 37.261719 C 320.863281 37.214844 320.667969 37.171875 320.472656 37.125 C 320.28125 37.078125 320.082031 37.050781 319.894531 36.980469 C 319.707031 36.921875 319.519531 36.859375 319.332031 36.796875 C 319.144531 36.734375 318.957031 36.683594 318.78125 36.609375 C 318.601562 36.535156 318.425781 36.460938 318.257812 36.390625 C 317.914062 36.242188 317.574219 36.113281 317.277344 35.949219 C 316.972656 35.789062 316.6875 35.640625 316.421875 35.503906 C 316.152344 35.375 315.929688 35.21875 315.71875 35.09375 C 315.515625 34.96875 315.332031 34.859375 315.183594 34.769531 C 314.890625 34.585938 314.71875 34.484375 314.71875 34.484375 C 314.71875 34.484375 314.890625 34.582031 315.191406 34.757812 C 315.339844 34.847656 315.523438 34.953125 315.730469 35.074219 C 315.941406 35.191406 316.167969 35.347656 316.441406 35.472656 C 316.707031 35.601562 316.996094 35.746094 317.300781 35.894531 C 317.601562 36.058594 317.941406 36.175781 318.285156 36.316406 C 318.457031 36.386719 318.632812 36.457031 318.808594 36.527344 C 318.988281 36.597656 319.175781 36.644531 319.363281 36.703125 C 319.546875 36.761719 319.734375 36.816406 319.925781 36.875 C 320.109375 36.9375 320.308594 36.960938 320.5 37.007812 C 320.695312 37.046875 320.886719 37.089844 321.082031 37.128906 C 321.273438 37.15625 321.46875 37.171875 321.664062 37.195312 C 322.046875 37.253906 322.429688 37.242188 322.796875 37.246094 C 322.984375 37.257812 323.160156 37.222656 323.339844 37.210938 C 323.515625 37.191406 323.6875 37.1875 323.851562 37.148438 C 324.015625 37.113281 324.175781 37.082031 324.332031 37.050781 C 324.484375 37.011719 324.632812 36.960938 324.769531 36.917969 C 324.914062 36.882812 325.042969 36.824219 325.164062 36.773438 C 325.285156 36.722656 325.40625 36.679688 325.507812 36.621094 C 325.613281 36.5625 325.710938 36.511719 325.800781 36.464844 C 325.886719 36.410156 325.964844 36.359375 326.035156 36.3125 C 326.171875 36.21875 326.28125 36.136719 326.34375 36.078125 C 326.351562 36.074219 326.359375 36.066406 326.363281 36.0625 C 326.101562 35.527344 325.839844 34.996094 325.582031 34.464844 C 325.234375 33.804688 324.886719 33.144531 324.539062 32.488281 C 323.351562 30.304688 322.070312 28.210938 320.722656 26.234375 C 320.699219 26.238281 320.664062 26.246094 320.617188 26.253906 C 320.523438 26.273438 320.390625 26.292969 320.222656 26.316406 C 320.050781 26.339844 319.84375 26.367188 319.605469 26.386719 C 319.367188 26.40625 319.097656 26.425781 318.804688 26.433594 C 318.511719 26.453125 318.195312 26.441406 317.859375 26.445312 C 317.523438 26.429688 317.167969 26.421875 316.804688 26.386719 C 316.4375 26.351562 316.0625 26.320312 315.679688 26.257812 C 315.492188 26.226562 315.296875 26.203125 315.109375 26.164062 C 314.917969 26.125 314.726562 26.085938 314.535156 26.046875 C 314.152344 25.976562 313.78125 25.851562 313.40625 25.757812 C 313.222656 25.710938 313.042969 25.648438 312.863281 25.585938 C 312.6875 25.523438 312.511719 25.464844 312.339844 25.402344 C 312.164062 25.347656 311.996094 25.277344 311.835938 25.207031 C 311.675781 25.140625 311.515625 25.070312 311.363281 25.007812 C 311.050781 24.882812 310.773438 24.730469 310.515625 24.597656 C 310.257812 24.460938 310.011719 24.351562 309.8125 24.222656 C 309.609375 24.097656 309.433594 23.988281 309.289062 23.902344 C 309 23.722656 308.835938 23.621094 308.835938 23.621094 C 308.835938 23.621094 309 23.71875 309.296875 23.890625 C 309.441406 23.976562 309.617188 24.082031 309.824219 24.203125 C 310.023438 24.328125 310.273438 24.429688 310.53125 24.5625 C 310.792969 24.691406 311.070312 24.839844 311.386719 24.953125 C 311.539062 25.015625 311.699219 25.082031 311.863281 25.144531 C 312.023438 25.214844 312.191406 25.277344 312.363281 25.332031 C 312.539062 25.386719 312.714844 25.445312 312.890625 25.5 C 313.070312 25.5625 313.25 25.621094 313.433594 25.660156 C 313.804688 25.75 314.175781 25.863281 314.5625 25.925781 C 314.75 25.960938 314.941406 25.996094 315.132812 26.03125 C 315.320312 26.066406 315.511719 26.085938 315.699219 26.113281 C 316.078125 26.171875 316.453125 26.195312 316.816406 26.222656 C 317.175781 26.25 317.527344 26.25 317.859375 26.257812 C 318.191406 26.25 318.507812 26.253906 318.796875 26.226562 C 319.085938 26.214844 319.351562 26.191406 319.582031 26.164062 C 319.816406 26.140625 320.019531 26.109375 320.1875 26.085938 C 320.351562 26.058594 320.484375 26.035156 320.570312 26.019531 C 320.570312 26.015625 320.574219 26.015625 320.578125 26.015625 C 320.359375 25.703125 320.140625 25.390625 319.921875 25.082031 C 318.285156 22.769531 316.554688 20.640625 314.832031 18.695312 C 313.5625 17.269531 312.285156 15.953125 311.027344 14.75 C 311.007812 14.75 310.984375 14.753906 310.957031 14.753906 C 310.851562 14.761719 310.703125 14.789062 310.507812 14.789062 C 310.410156 14.792969 310.300781 14.796875 310.183594 14.800781 C 310.066406 14.796875 309.941406 14.792969 309.804688 14.789062 C 309.671875 14.789062 309.527344 14.773438 309.378906 14.761719 C 309.226562 14.75 309.066406 14.734375 308.902344 14.710938 C 308.738281 14.691406 308.570312 14.667969 308.394531 14.636719 C 308.21875 14.609375 308.035156 14.574219 307.851562 14.535156 C 307.480469 14.460938 307.089844 14.371094 306.695312 14.261719 C 305.898438 14.046875 305.066406 13.769531 304.242188 13.460938 C 302.601562 12.84375 301.011719 12.101562 299.84375 11.503906 C 298.671875 10.90625 297.917969 10.464844 297.917969 10.464844 C 297.917969 10.464844 298.679688 10.894531 299.859375 11.46875 C 301.039062 12.046875 302.640625 12.761719 304.285156 13.347656 C 305.109375 13.640625 305.945312 13.898438 306.738281 14.097656 C 307.132812 14.199219 307.519531 14.285156 307.886719 14.351562 C 308.070312 14.390625 308.25 14.417969 308.425781 14.441406 C 308.597656 14.46875 308.765625 14.488281 308.929688 14.507812 C 309.089844 14.527344 309.246094 14.539062 309.394531 14.546875 C 309.539062 14.554688 309.679688 14.570312 309.8125 14.566406 C 309.945312 14.566406 310.070312 14.570312 310.183594 14.570312 C 310.296875 14.566406 310.398438 14.5625 310.496094 14.554688 C 310.613281 14.554688 310.714844 14.539062 310.800781 14.53125 C 310.425781 14.175781 310.050781 13.828125 309.683594 13.492188 C 308.003906 11.964844 306.382812 10.65625 304.910156 9.546875 C 303.4375 8.4375 302.101562 7.535156 300.980469 6.828125 C 298.730469 5.421875 297.351562 4.78125 297.351562 4.78125 C 297.351562 4.78125 297.699219 4.929688 298.335938 5.25 C 298.972656 5.570312 299.894531 6.058594 301.035156 6.742188 C 302.171875 7.425781 303.527344 8.304688 305.027344 9.386719 C 306.53125 10.46875 308.175781 11.761719 309.878906 13.273438 C 311.585938 14.785156 313.355469 16.511719 315.117188 18.441406 C 315.136719 18.464844 315.160156 18.488281 315.179688 18.515625 C 315.179688 18.417969 315.175781 18.292969 315.15625 18.132812 C 315.140625 17.949219 315.101562 17.726562 315.0625 17.46875 C 315.007812 17.214844 314.949219 16.925781 314.867188 16.617188 C 314.78125 16.304688 314.683594 15.972656 314.570312 15.621094 C 314.453125 15.273438 314.320312 14.90625 314.179688 14.53125 C 313.890625 13.777344 313.546875 12.988281 313.183594 12.207031 C 312.457031 10.644531 311.640625 9.125 311.007812 8 C 310.371094 6.871094 309.917969 6.140625 309.917969 6.140625 C 309.917969 6.140625 311.785156 9.046875 313.292969 12.152344 C 313.671875 12.929688 314.027344 13.71875 314.332031 14.46875 C 314.484375 14.84375 314.625 15.210938 314.746094 15.5625 C 314.871094 15.914062 314.976562 16.25 315.066406 16.5625 C 315.152344 16.875 315.222656 17.167969 315.277344 17.425781 C 315.324219 17.6875 315.371094 17.914062 315.386719 18.109375 C 315.414062 18.296875 315.417969 18.449219 315.425781 18.550781 C 315.429688 18.65625 315.433594 18.710938 315.433594 18.710938 L 315.359375 18.710938 C 317.039062 20.566406 318.695312 22.617188 320.277344 24.828125 C 321.078125 25.941406 321.855469 27.101562 322.609375 28.292969 C 322.632812 28.199219 322.660156 28.078125 322.691406 27.933594 C 322.773438 27.542969 322.878906 26.984375 322.964844 26.308594 C 323.011719 25.96875 323.042969 25.601562 323.082031 25.210938 C 323.113281 24.824219 323.132812 24.410156 323.152344 23.984375 C 323.15625 23.558594 323.183594 23.117188 323.160156 22.667969 C 323.152344 22.445312 323.148438 22.21875 323.140625 21.992188 C 323.132812 21.765625 323.109375 21.539062 323.09375 21.3125 C 323.074219 21.085938 323.0625 20.855469 323.035156 20.632812 C 323.007812 20.40625 322.980469 20.183594 322.949219 19.960938 C 322.902344 19.511719 322.808594 19.082031 322.734375 18.660156 C 322.664062 18.238281 322.550781 17.839844 322.457031 17.460938 C 322.410156 17.269531 322.359375 17.085938 322.316406 16.90625 C 322.257812 16.730469 322.203125 16.5625 322.148438 16.398438 C 322.042969 16.074219 321.953125 15.773438 321.855469 15.511719 C 321.75 15.253906 321.65625 15.03125 321.582031 14.847656 C 321.429688 14.476562 321.347656 14.265625 321.347656 14.265625 C 321.347656 14.265625 321.433594 14.472656 321.59375 14.839844 C 321.671875 15.027344 321.765625 15.25 321.875 15.503906 C 321.980469 15.765625 322.070312 16.0625 322.1875 16.386719 C 322.242188 16.550781 322.300781 16.71875 322.359375 16.894531 C 322.410156 17.070312 322.460938 17.253906 322.511719 17.445312 C 322.613281 17.824219 322.734375 18.222656 322.808594 18.644531 C 322.894531 19.066406 322.996094 19.496094 323.046875 19.945312 C 323.082031 20.167969 323.113281 20.394531 323.144531 20.617188 C 323.179688 20.84375 323.191406 21.074219 323.214844 21.300781 C 323.234375 21.53125 323.261719 21.757812 323.273438 21.984375 C 323.285156 22.210938 323.296875 22.441406 323.304688 22.664062 C 323.335938 23.117188 323.316406 23.558594 323.320312 23.988281 C 323.308594 24.417969 323.296875 24.832031 323.269531 25.226562 C 323.238281 25.621094 323.210938 25.992188 323.167969 26.332031 C 323.09375 27.015625 322.996094 27.582031 322.921875 27.980469 C 322.882812 28.175781 322.851562 28.332031 322.824219 28.4375 C 322.808594 28.507812 322.796875 28.554688 322.792969 28.578125 C 323.539062 29.773438 324.261719 31.003906 324.953125 32.261719 C 325.304688 32.921875 325.664062 33.585938 326.011719 34.253906 C 326.34375 34.925781 326.679688 35.601562 327.015625 36.28125 C 327.660156 37.636719 328.375 38.964844 329.144531 40.261719 C 329.695312 41.183594 330.273438 42.085938 330.875 42.972656 C 330.925781 42.847656 330.984375 42.695312 331.054688 42.511719 C 331.253906 41.984375 331.523438 41.222656 331.816406 40.296875 C 331.960938 39.832031 332.113281 39.332031 332.261719 38.792969 C 332.414062 38.257812 332.550781 37.691406 332.691406 37.097656 C 332.824219 36.507812 332.953125 35.894531 333.0625 35.265625 C 333.179688 34.640625 333.277344 34 333.355469 33.355469 C 333.4375 32.714844 333.496094 32.070312 333.535156 31.433594 C 333.546875 31.113281 333.5625 30.796875 333.570312 30.484375 C 333.570312 30.175781 333.582031 29.863281 333.570312 29.5625 C 333.558594 28.953125 333.527344 28.367188 333.472656 27.816406 C 333.417969 27.261719 333.335938 26.742188 333.253906 26.261719 C 333.203125 26.023438 333.15625 25.796875 333.109375 25.582031 C 333.058594 25.367188 333 25.164062 332.953125 24.972656 C 332.90625 24.78125 332.847656 24.605469 332.792969 24.441406 C 332.738281 24.28125 332.691406 24.132812 332.644531 23.996094 C 332.546875 23.730469 332.460938 23.527344 332.40625 23.386719 C 332.394531 23.363281 332.386719 23.34375 332.378906 23.324219 C 332.390625 23.34375 332.398438 23.363281 332.40625 23.386719 C 332.460938 23.527344 332.550781 23.730469 332.648438 23.996094 C 332.695312 24.132812 332.746094 24.28125 332.796875 24.441406 C 332.855469 24.601562 332.910156 24.777344 332.960938 24.96875 C 333.007812 25.160156 333.066406 25.363281 333.121094 25.578125 C 333.167969 25.792969 333.214844 26.023438 333.265625 26.261719 C 333.351562 26.738281 333.4375 27.257812 333.492188 27.8125 C 333.550781 28.367188 333.585938 28.953125 333.597656 29.5625 C 333.609375 29.867188 333.601562 30.171875 333.601562 30.488281 C 333.597656 30.800781 333.582031 31.117188 333.570312 31.433594 C 333.53125 32.070312 333.488281 32.71875 333.414062 33.363281 C 333.339844 34.007812 333.25 34.652344 333.144531 35.28125 C 333.042969 35.910156 332.917969 36.527344 332.792969 37.121094 C 332.53125 38.308594 332.25 39.410156 331.980469 40.34375 C 331.574219 41.746094 331.199219 42.777344 331.039062 43.207031 C 332.085938 44.726562 333.203125 46.191406 334.367188 47.589844 C 336.273438 49.875 338.304688 51.988281 340.371094 53.929688 C 340.378906 53.9375 340.386719 53.945312 340.394531 53.953125 C 340.527344 53.863281 340.738281 53.714844 341.011719 53.488281 C 341.246094 53.292969 341.527344 53.042969 341.824219 52.734375 C 342.117188 52.421875 342.441406 52.0625 342.75 51.632812 C 343.058594 51.203125 343.378906 50.726562 343.652344 50.1875 C 343.925781 49.648438 344.1875 49.0625 344.386719 48.429688 C 344.5 48.117188 344.570312 47.789062 344.660156 47.460938 C 344.695312 47.292969 344.730469 47.125 344.765625 46.957031 C 344.800781 46.789062 344.832031 46.621094 344.855469 46.445312 C 344.878906 46.273438 344.902344 46.101562 344.925781 45.929688 C 344.949219 45.753906 344.957031 45.578125 344.96875 45.402344 C 345.007812 45.054688 345.007812 44.699219 345.011719 44.34375 L 345.015625 44.082031 L 344.980469 43.285156 C 344.964844 42.933594 344.914062 42.585938 344.882812 42.238281 C 344.84375 41.890625 344.777344 41.550781 344.726562 41.214844 C 344.671875 40.875 344.585938 40.546875 344.519531 40.222656 C 344.457031 39.894531 344.359375 39.585938 344.277344 39.273438 C 344.195312 38.964844 344.113281 38.664062 344.011719 38.375 C 343.917969 38.085938 343.824219 37.804688 343.734375 37.53125 C 343.632812 37.261719 343.535156 37.003906 343.441406 36.753906 C 343.261719 36.253906 343.054688 35.8125 342.882812 35.414062 C 342.796875 35.214844 342.71875 35.027344 342.640625 34.859375 C 342.558594 34.691406 342.484375 34.535156 342.414062 34.394531 C 342.144531 33.835938 341.988281 33.515625 341.988281 33.515625 C 341.988281 33.515625 342.148438 33.835938 342.425781 34.390625 C 342.496094 34.53125 342.570312 34.683594 342.65625 34.851562 C 342.734375 35.019531 342.816406 35.207031 342.90625 35.402344 C 343.082031 35.800781 343.289062 36.242188 343.476562 36.742188 C 343.574219 36.988281 343.675781 37.246094 343.78125 37.515625 C 343.871094 37.789062 343.96875 38.070312 344.066406 38.359375 C 344.171875 38.644531 344.257812 38.949219 344.34375 39.257812 C 344.429688 39.566406 344.53125 39.878906 344.597656 40.207031 C 344.667969 40.53125 344.753906 40.859375 344.8125 41.199219 C 344.867188 41.535156 344.9375 41.878906 344.980469 42.226562 C 345.015625 42.574219 345.070312 42.925781 345.09375 43.277344 L 345.121094 43.808594 L 345.136719 44.078125 L 345.136719 44.34375 C 345.132812 44.703125 345.136719 45.058594 345.105469 45.414062 C 345.089844 45.589844 345.085938 45.765625 345.066406 45.941406 C 345.042969 46.117188 345.019531 46.292969 344.996094 46.46875 C 344.980469 46.644531 344.949219 46.816406 344.914062 46.984375 C 344.878906 47.15625 344.847656 47.328125 344.8125 47.496094 C 344.722656 47.828125 344.65625 48.164062 344.546875 48.480469 C 344.351562 49.125 344.09375 49.722656 343.816406 50.273438 C 343.546875 50.824219 343.226562 51.3125 342.917969 51.753906 C 342.609375 52.195312 342.28125 52.566406 341.984375 52.886719 C 341.6875 53.207031 341.402344 53.464844 341.160156 53.667969 C 340.917969 53.875 340.714844 54.023438 340.574219 54.121094 C 343.421875 56.792969 346.320312 59.132812 349.078125 61.152344 C 349.128906 61.136719 349.15625 61.128906 349.15625 61.128906 L 349.191406 61.234375 C 350.328125 62.0625 351.4375 62.835938 352.511719 63.558594 C 354.398438 64.820312 356.160156 65.9375 357.75 66.878906 C 359.335938 67.824219 360.742188 68.609375 361.914062 69.234375 C 364.253906 70.484375 365.640625 71.101562 365.640625 71.101562"/></g></g></g></svg>