<svg xmlns="http://www.w3.org/2000/svg" xmlns:xlink="http://www.w3.org/1999/xlink" width="40" zoomAndPan="magnify" viewBox="0 0 30 30.000001" height="40" preserveAspectRatio="xMidYMid meet" version="1.0"><defs><g/><clipPath id="id1"><path d="M 0.484375 6 L 28 6 L 28 29.03125 L 0.484375 29.03125 Z M 0.484375 6 " clip-rule="nonzero"/></clipPath><clipPath id="id2"><path d="M 23 0 L 29.515625 0 L 29.515625 6 L 23 6 Z M 23 0 " clip-rule="nonzero"/></clipPath><clipPath id="id3"><path d="M 23 0 L 29.5 -0.625 L 30.125 5.878906 L 23.625 6.503906 Z M 23 0 " clip-rule="nonzero"/></clipPath><clipPath id="id4"><path d="M 23 0 L 29.5 -0.625 L 30.125 5.878906 L 23.625 6.503906 Z M 23 0 " clip-rule="nonzero"/></clipPath><clipPath id="id5"><path d="M 23 0 L 29.503906 -0.625 L 30.128906 5.886719 L 23.625 6.507812 Z M 23 0 " clip-rule="nonzero"/></clipPath><clipPath id="id6"><path d="M 23 0 L 29.5 -0.625 L 30.125 5.875 L 23.625 6.5 Z M 23 0 " clip-rule="nonzero"/></clipPath><clipPath id="id7"><path d="M 23 0 L 29 0 L 29 6 L 23 6 Z M 23 0 " clip-rule="nonzero"/></clipPath><clipPath id="id8"><path d="M 23 0 L 29.5 -0.625 L 30.125 5.878906 L 23.625 6.503906 Z M 23 0 " clip-rule="nonzero"/></clipPath><clipPath id="id9"><path d="M 23 0 L 29.5 -0.625 L 30.125 5.878906 L 23.625 6.503906 Z M 23 0 " clip-rule="nonzero"/></clipPath></defs><g clip-path="url(#id1)"><g fill="rgb(0%, 0%, 0%)" fill-opacity="1"><g transform="translate(1.513208, 29.533398)"><g><path d="M 0.378906 0.726562 C 0.664062 0.4375 0.96875 0.179688 1.253906 -0.105469 C 4.265625 -3.070312 7.125 -6.203125 10.136719 -9.152344 C 10.363281 -9.378906 10.621094 -9.5625 10.90625 -9.710938 C 12.84375 -10.648438 14.808594 -11.558594 16.824219 -12.390625 C 17.773438 -12.78125 18.742188 -13.160156 19.710938 -13.539062 C 19.726562 -13.523438 19.742188 -13.496094 19.757812 -13.480469 C 19.46875 -12.964844 19.167969 -12.464844 18.878906 -11.949219 C 16.882812 -8.410156 15.21875 -4.691406 13.507812 -1 C 13.265625 -0.484375 13.375 -0.273438 13.855469 -0.136719 C 14.128906 -0.0585938 14.296875 -0.195312 14.460938 -0.394531 C 14.929688 -0.984375 15.292969 -1.648438 15.671875 -2.316406 C 17.957031 -6.324219 20.210938 -10.363281 22.585938 -14.328125 C 22.691406 -14.476562 22.78125 -14.628906 22.996094 -14.6875 C 23.796875 -14.945312 24.613281 -15.1875 25.445312 -15.386719 C 25.582031 -15.414062 25.71875 -15.445312 25.867188 -15.398438 C 25.988281 -15.355469 26.15625 -15.277344 26.230469 -15.445312 C 26.308594 -15.613281 26.1875 -15.734375 26.066406 -15.839844 C 25.71875 -16.109375 25.324219 -16.15625 24.902344 -16.109375 C 24.445312 -16.050781 24.007812 -15.976562 23.523438 -15.898438 C 23.613281 -16.066406 23.675781 -16.1875 23.734375 -16.308594 C 24.265625 -17.246094 24.78125 -18.199219 25.21875 -19.183594 C 25.550781 -19.984375 25.914062 -20.769531 26.050781 -21.632812 C 26.109375 -22.011719 25.988281 -22.328125 25.6875 -22.554688 C 24.886719 -23.175781 24.28125 -23.191406 23.585938 -22.796875 C 22.191406 -21.996094 20.984375 -20.96875 19.742188 -19.953125 C 16.339844 -17.199219 13.207031 -14.144531 10.03125 -11.132812 C 9.804688 -10.90625 9.546875 -10.726562 9.257812 -10.589844 C 7.789062 -9.847656 6.339844 -9.046875 4.945312 -8.152344 C 3.902344 -7.488281 2.90625 -6.761719 2.042969 -5.855469 C 1.664062 -5.476562 1.738281 -5.203125 2.253906 -5.007812 C 2.527344 -4.917969 2.753906 -4.960938 2.980469 -5.113281 C 3.675781 -5.582031 4.371094 -6.035156 5.054688 -6.488281 C 5.1875 -6.582031 5.308594 -6.65625 5.476562 -6.761719 C 5.414062 -6.550781 5.292969 -6.476562 5.203125 -6.382812 C 3.765625 -4.945312 2.300781 -3.554688 0.9375 -2.058594 C 0.347656 -1.421875 -0.210938 -0.757812 -0.664062 -0.015625 C -0.726562 0.105469 -0.847656 0.226562 -0.785156 0.378906 C -0.636719 0.710938 0.0742188 1.042969 0.378906 0.726562 Z M 23.734375 -20.984375 C 23.417969 -20.089844 23.039062 -19.304688 22.648438 -18.53125 C 22.101562 -17.472656 21.496094 -16.429688 20.90625 -15.398438 C 20.785156 -15.21875 20.664062 -15.113281 20.453125 -15.050781 C 18.230469 -14.402344 16.050781 -13.628906 13.902344 -12.722656 C 14.339844 -13.675781 22.027344 -20.152344 23.734375 -20.984375 Z M 23.734375 -20.984375 "/></g></g></g></g><g clip-path="url(#id2)"><g clip-path="url(#id3)"><g clip-path="url(#id4)"><g clip-path="url(#id5)"><g clip-path="url(#id6)"><path fill="rgb(16.079712%, 45.489502%, 11.369324%)" d="M 28.894531 5.882812 C 28.0625 5.792969 25.136719 5.242188 24.277344 3.070312 C 23.605469 1.378906 23 0 23 0 C 23 0 25.917969 0.332031 27.085938 1.980469 C 28.25 3.628906 28.507812 5.488281 29.015625 5.710938 C 29.304688 5.839844 29.988281 5.738281 29.988281 5.738281 L 30.121094 5.859375 C 30.121094 5.859375 29.726562 5.972656 28.894531 5.882812 " fill-opacity="1" fill-rule="nonzero"/></g></g></g></g></g><g clip-path="url(#id7)"><g clip-path="url(#id8)"><g clip-path="url(#id9)"><path fill="rgb(40.779114%, 56.469727%, 16.859436%)" d="M 26.296875 1.90625 C 26.296875 1.90625 26.292969 1.90625 26.292969 1.902344 C 26.292969 1.90625 26.296875 1.90625 26.296875 1.90625 Z M 26.292969 1.898438 C 26.292969 1.894531 26.300781 1.890625 26.300781 1.890625 L 26.28125 1.898438 C 26.28125 1.898438 26.289062 1.898438 26.292969 1.898438 C 26.292969 1.898438 26.292969 1.902344 26.292969 1.902344 C 26.292969 1.902344 26.292969 1.898438 26.292969 1.898438 Z M 28.941406 5.800781 C 28.941406 5.800781 28.828125 5.753906 28.640625 5.652344 C 28.546875 5.605469 28.433594 5.542969 28.308594 5.46875 C 28.179688 5.390625 28.039062 5.304688 27.886719 5.203125 C 27.800781 5.144531 27.710938 5.078125 27.617188 5.011719 C 27.613281 5.011719 27.609375 5.015625 27.601562 5.015625 C 27.589844 5.019531 27.574219 5.023438 27.558594 5.027344 C 27.542969 5.03125 27.523438 5.039062 27.503906 5.042969 C 27.484375 5.046875 27.460938 5.050781 27.4375 5.054688 C 27.414062 5.0625 27.390625 5.0625 27.363281 5.066406 C 27.351562 5.070312 27.339844 5.070312 27.324219 5.074219 C 27.3125 5.074219 27.296875 5.074219 27.285156 5.078125 C 27.269531 5.078125 27.257812 5.078125 27.242188 5.078125 C 27.230469 5.078125 27.214844 5.078125 27.203125 5.078125 C 27.1875 5.078125 27.171875 5.078125 27.160156 5.078125 C 27.144531 5.078125 27.132812 5.078125 27.117188 5.074219 C 27.089844 5.074219 27.066406 5.066406 27.039062 5.0625 C 27.027344 5.0625 27.015625 5.058594 27 5.054688 C 26.988281 5.050781 26.976562 5.050781 26.964844 5.046875 C 26.953125 5.042969 26.945312 5.039062 26.933594 5.035156 C 26.921875 5.03125 26.914062 5.023438 26.902344 5.019531 C 26.894531 5.015625 26.882812 5.011719 26.875 5.007812 C 26.867188 5.003906 26.859375 5 26.851562 4.996094 C 26.84375 4.988281 26.839844 4.984375 26.832031 4.980469 C 26.828125 4.976562 26.820312 4.972656 26.816406 4.96875 C 26.804688 4.960938 26.800781 4.957031 26.792969 4.953125 C 26.789062 4.945312 26.789062 4.945312 26.789062 4.945312 C 26.789062 4.945312 26.789062 4.945312 26.792969 4.949219 C 26.800781 4.957031 26.808594 4.960938 26.816406 4.96875 C 26.820312 4.972656 26.828125 4.976562 26.832031 4.980469 C 26.839844 4.984375 26.847656 4.988281 26.851562 4.992188 C 26.859375 4.996094 26.867188 5 26.878906 5.003906 C 26.886719 5.011719 26.894531 5.015625 26.90625 5.019531 C 26.914062 5.023438 26.925781 5.027344 26.933594 5.03125 C 26.945312 5.035156 26.957031 5.035156 26.96875 5.039062 C 26.980469 5.042969 26.992188 5.046875 27.003906 5.050781 C 27.015625 5.050781 27.027344 5.054688 27.039062 5.058594 C 27.066406 5.0625 27.09375 5.066406 27.121094 5.066406 C 27.132812 5.066406 27.148438 5.070312 27.160156 5.070312 C 27.175781 5.070312 27.1875 5.070312 27.203125 5.070312 C 27.214844 5.070312 27.230469 5.070312 27.242188 5.070312 C 27.257812 5.066406 27.269531 5.066406 27.285156 5.066406 C 27.296875 5.0625 27.308594 5.0625 27.324219 5.0625 C 27.335938 5.058594 27.351562 5.058594 27.363281 5.054688 C 27.386719 5.050781 27.414062 5.046875 27.4375 5.042969 C 27.457031 5.035156 27.480469 5.03125 27.5 5.027344 C 27.519531 5.019531 27.539062 5.015625 27.554688 5.011719 C 27.570312 5.003906 27.585938 5 27.597656 4.996094 C 27.375 4.832031 27.140625 4.640625 26.914062 4.421875 C 26.816406 4.332031 26.722656 4.234375 26.628906 4.132812 C 26.609375 4.148438 26.542969 4.1875 26.449219 4.222656 C 26.417969 4.230469 26.386719 4.242188 26.351562 4.25 C 26.316406 4.257812 26.28125 4.265625 26.242188 4.269531 C 26.203125 4.277344 26.160156 4.277344 26.121094 4.277344 C 26.078125 4.277344 26.039062 4.273438 25.996094 4.269531 C 25.953125 4.261719 25.914062 4.253906 25.875 4.242188 C 25.855469 4.234375 25.835938 4.226562 25.816406 4.222656 C 25.796875 4.214844 25.78125 4.207031 25.761719 4.199219 C 25.742188 4.191406 25.726562 4.183594 25.710938 4.175781 C 25.691406 4.167969 25.675781 4.15625 25.660156 4.148438 C 25.644531 4.140625 25.628906 4.128906 25.617188 4.121094 C 25.601562 4.113281 25.585938 4.101562 25.574219 4.09375 C 25.550781 4.074219 25.527344 4.058594 25.507812 4.042969 C 25.488281 4.027344 25.46875 4.011719 25.457031 4 C 25.429688 3.972656 25.414062 3.960938 25.414062 3.960938 C 25.414062 3.960938 25.429688 3.972656 25.457031 4 C 25.46875 4.011719 25.488281 4.023438 25.507812 4.039062 C 25.527344 4.058594 25.550781 4.074219 25.578125 4.089844 C 25.589844 4.101562 25.601562 4.109375 25.617188 4.117188 C 25.632812 4.125 25.648438 4.136719 25.664062 4.144531 C 25.679688 4.152344 25.695312 4.160156 25.710938 4.167969 C 25.726562 4.175781 25.746094 4.1875 25.761719 4.195312 C 25.78125 4.199219 25.800781 4.207031 25.820312 4.214844 C 25.839844 4.222656 25.855469 4.226562 25.875 4.234375 C 25.917969 4.242188 25.957031 4.253906 25.996094 4.257812 C 26.039062 4.265625 26.078125 4.265625 26.121094 4.265625 C 26.160156 4.265625 26.199219 4.261719 26.238281 4.257812 C 26.277344 4.253906 26.3125 4.246094 26.347656 4.234375 C 26.382812 4.226562 26.414062 4.214844 26.441406 4.207031 C 26.5 4.183594 26.546875 4.160156 26.578125 4.140625 C 26.59375 4.132812 26.609375 4.125 26.617188 4.117188 C 26.554688 4.050781 26.492188 3.976562 26.429688 3.90625 C 26.277344 3.71875 26.136719 3.515625 26.011719 3.304688 C 25.949219 3.199219 25.890625 3.089844 25.839844 2.976562 C 25.835938 2.972656 25.832031 2.964844 25.832031 2.960938 C 25.824219 2.964844 25.816406 2.972656 25.804688 2.976562 C 25.800781 2.980469 25.792969 2.984375 25.785156 2.992188 C 25.777344 2.996094 25.769531 3 25.761719 3.003906 C 25.753906 3.007812 25.742188 3.011719 25.734375 3.015625 C 25.722656 3.019531 25.710938 3.023438 25.699219 3.027344 C 25.6875 3.03125 25.675781 3.035156 25.664062 3.039062 C 25.652344 3.039062 25.636719 3.042969 25.625 3.042969 C 25.613281 3.046875 25.597656 3.046875 25.582031 3.050781 C 25.570312 3.050781 25.554688 3.050781 25.539062 3.050781 C 25.507812 3.050781 25.480469 3.050781 25.449219 3.046875 C 25.433594 3.042969 25.417969 3.042969 25.402344 3.039062 C 25.386719 3.035156 25.371094 3.03125 25.355469 3.027344 C 25.339844 3.023438 25.324219 3.019531 25.308594 3.015625 C 25.292969 3.011719 25.277344 3.003906 25.265625 3 C 25.25 2.996094 25.234375 2.992188 25.21875 2.984375 C 25.207031 2.980469 25.191406 2.972656 25.179688 2.96875 C 25.152344 2.953125 25.125 2.945312 25.101562 2.929688 C 25.078125 2.917969 25.054688 2.90625 25.035156 2.894531 C 25.011719 2.882812 24.996094 2.871094 24.976562 2.859375 C 24.960938 2.851562 24.945312 2.839844 24.933594 2.835938 C 24.910156 2.820312 24.898438 2.8125 24.898438 2.8125 C 24.898438 2.8125 24.914062 2.820312 24.9375 2.832031 C 24.949219 2.839844 24.960938 2.847656 24.980469 2.859375 C 24.996094 2.867188 25.011719 2.882812 25.035156 2.890625 C 25.054688 2.902344 25.078125 2.914062 25.101562 2.925781 C 25.128906 2.941406 25.152344 2.949219 25.179688 2.960938 C 25.195312 2.964844 25.207031 2.972656 25.222656 2.976562 C 25.238281 2.984375 25.253906 2.988281 25.265625 2.992188 C 25.28125 2.996094 25.296875 3.003906 25.3125 3.007812 C 25.324219 3.011719 25.34375 3.015625 25.355469 3.019531 C 25.371094 3.019531 25.386719 3.023438 25.402344 3.027344 C 25.417969 3.03125 25.433594 3.03125 25.449219 3.035156 C 25.480469 3.039062 25.511719 3.039062 25.539062 3.039062 C 25.554688 3.039062 25.566406 3.035156 25.582031 3.035156 C 25.597656 3.035156 25.609375 3.03125 25.621094 3.03125 C 25.636719 3.027344 25.648438 3.023438 25.660156 3.023438 C 25.671875 3.019531 25.683594 3.015625 25.695312 3.011719 C 25.707031 3.007812 25.71875 3.003906 25.726562 3 C 25.734375 2.996094 25.746094 2.992188 25.753906 2.988281 C 25.761719 2.984375 25.769531 2.976562 25.777344 2.972656 C 25.785156 2.96875 25.789062 2.964844 25.796875 2.960938 C 25.804688 2.953125 25.816406 2.949219 25.820312 2.945312 C 25.820312 2.941406 25.820312 2.941406 25.820312 2.941406 C 25.800781 2.898438 25.78125 2.855469 25.757812 2.8125 C 25.730469 2.757812 25.703125 2.703125 25.675781 2.652344 C 25.582031 2.472656 25.480469 2.300781 25.371094 2.140625 C 25.371094 2.140625 25.367188 2.140625 25.363281 2.144531 C 25.355469 2.144531 25.347656 2.144531 25.332031 2.148438 C 25.320312 2.148438 25.304688 2.152344 25.285156 2.152344 C 25.265625 2.15625 25.242188 2.15625 25.21875 2.15625 C 25.199219 2.160156 25.171875 2.15625 25.144531 2.15625 C 25.117188 2.15625 25.089844 2.15625 25.0625 2.152344 C 25.03125 2.148438 25.003906 2.148438 24.972656 2.140625 C 24.957031 2.140625 24.941406 2.136719 24.925781 2.132812 C 24.914062 2.132812 24.898438 2.128906 24.882812 2.125 C 24.851562 2.117188 24.820312 2.109375 24.792969 2.101562 C 24.777344 2.097656 24.765625 2.089844 24.75 2.085938 C 24.734375 2.082031 24.722656 2.078125 24.707031 2.070312 C 24.695312 2.066406 24.679688 2.0625 24.667969 2.054688 C 24.65625 2.050781 24.644531 2.042969 24.628906 2.039062 C 24.605469 2.027344 24.582031 2.015625 24.5625 2.003906 C 24.542969 1.996094 24.523438 1.984375 24.507812 1.976562 C 24.492188 1.964844 24.476562 1.957031 24.464844 1.949219 C 24.441406 1.933594 24.429688 1.925781 24.429688 1.925781 C 24.429688 1.925781 24.441406 1.933594 24.464844 1.949219 C 24.476562 1.953125 24.492188 1.964844 24.507812 1.972656 C 24.523438 1.984375 24.542969 1.992188 24.566406 2.003906 C 24.585938 2.011719 24.609375 2.027344 24.632812 2.035156 C 24.644531 2.039062 24.65625 2.046875 24.671875 2.050781 C 24.683594 2.054688 24.695312 2.0625 24.710938 2.066406 C 24.722656 2.070312 24.738281 2.074219 24.75 2.078125 C 24.765625 2.085938 24.78125 2.089844 24.792969 2.09375 C 24.824219 2.101562 24.855469 2.109375 24.882812 2.113281 C 24.898438 2.117188 24.914062 2.121094 24.929688 2.125 C 24.945312 2.125 24.960938 2.128906 24.972656 2.128906 C 25.003906 2.136719 25.035156 2.136719 25.0625 2.140625 C 25.089844 2.140625 25.121094 2.140625 25.144531 2.140625 C 25.171875 2.140625 25.195312 2.140625 25.21875 2.140625 C 25.242188 2.140625 25.261719 2.136719 25.28125 2.136719 C 25.300781 2.132812 25.316406 2.128906 25.328125 2.128906 C 25.34375 2.125 25.351562 2.125 25.359375 2.125 C 25.34375 2.097656 25.328125 2.070312 25.308594 2.046875 C 25.179688 1.859375 25.042969 1.683594 24.902344 1.527344 C 24.804688 1.410156 24.703125 1.300781 24.601562 1.203125 C 24.601562 1.203125 24.597656 1.203125 24.597656 1.203125 C 24.589844 1.207031 24.574219 1.207031 24.5625 1.207031 C 24.554688 1.207031 24.542969 1.207031 24.535156 1.207031 C 24.527344 1.207031 24.515625 1.207031 24.503906 1.207031 C 24.496094 1.207031 24.484375 1.207031 24.472656 1.203125 C 24.460938 1.203125 24.445312 1.203125 24.433594 1.199219 C 24.421875 1.199219 24.40625 1.199219 24.394531 1.195312 C 24.378906 1.191406 24.363281 1.191406 24.351562 1.1875 C 24.320312 1.179688 24.289062 1.171875 24.257812 1.164062 C 24.195312 1.144531 24.128906 1.125 24.0625 1.097656 C 23.933594 1.046875 23.808594 0.988281 23.714844 0.9375 C 23.621094 0.890625 23.5625 0.851562 23.5625 0.851562 C 23.5625 0.851562 23.621094 0.886719 23.714844 0.933594 C 23.808594 0.980469 23.9375 1.039062 24.066406 1.089844 C 24.132812 1.113281 24.199219 1.132812 24.261719 1.152344 C 24.292969 1.160156 24.324219 1.164062 24.351562 1.171875 C 24.367188 1.175781 24.382812 1.175781 24.394531 1.179688 C 24.410156 1.179688 24.421875 1.183594 24.433594 1.183594 C 24.449219 1.1875 24.460938 1.1875 24.472656 1.1875 C 24.484375 1.1875 24.496094 1.1875 24.503906 1.1875 C 24.515625 1.1875 24.527344 1.191406 24.535156 1.191406 C 24.542969 1.1875 24.550781 1.1875 24.558594 1.1875 C 24.570312 1.1875 24.578125 1.1875 24.582031 1.1875 C 24.554688 1.15625 24.523438 1.128906 24.496094 1.101562 C 24.363281 0.976562 24.234375 0.871094 24.117188 0.78125 C 24 0.6875 23.894531 0.617188 23.804688 0.558594 C 23.625 0.441406 23.515625 0.390625 23.515625 0.390625 C 23.515625 0.390625 23.542969 0.402344 23.59375 0.429688 C 23.644531 0.453125 23.71875 0.496094 23.808594 0.550781 C 23.898438 0.605469 24.007812 0.679688 24.125 0.765625 C 24.246094 0.855469 24.375 0.960938 24.511719 1.085938 C 24.644531 1.207031 24.785156 1.347656 24.925781 1.503906 C 24.929688 1.507812 24.929688 1.507812 24.933594 1.511719 C 24.929688 1.503906 24.929688 1.492188 24.929688 1.480469 C 24.929688 1.464844 24.925781 1.449219 24.921875 1.425781 C 24.917969 1.40625 24.914062 1.382812 24.90625 1.355469 C 24.898438 1.332031 24.890625 1.304688 24.882812 1.277344 C 24.875 1.246094 24.863281 1.21875 24.851562 1.1875 C 24.828125 1.125 24.800781 1.0625 24.773438 0.996094 C 24.714844 0.871094 24.648438 0.746094 24.597656 0.65625 C 24.546875 0.5625 24.511719 0.503906 24.511719 0.503906 C 24.511719 0.503906 24.660156 0.742188 24.78125 0.992188 C 24.8125 1.058594 24.839844 1.121094 24.863281 1.183594 C 24.875 1.210938 24.886719 1.242188 24.898438 1.269531 C 24.90625 1.300781 24.914062 1.328125 24.921875 1.351562 C 24.929688 1.378906 24.933594 1.402344 24.9375 1.421875 C 24.941406 1.445312 24.945312 1.464844 24.949219 1.480469 C 24.949219 1.492188 24.949219 1.507812 24.949219 1.515625 C 24.953125 1.523438 24.953125 1.527344 24.953125 1.527344 L 24.945312 1.527344 C 25.078125 1.679688 25.210938 1.847656 25.335938 2.027344 C 25.402344 2.117188 25.460938 2.210938 25.523438 2.308594 C 25.523438 2.300781 25.527344 2.292969 25.527344 2.28125 C 25.535156 2.246094 25.542969 2.203125 25.550781 2.148438 C 25.554688 2.121094 25.554688 2.089844 25.558594 2.058594 C 25.5625 2.027344 25.5625 1.992188 25.566406 1.957031 C 25.566406 1.921875 25.566406 1.886719 25.566406 1.851562 C 25.5625 1.832031 25.5625 1.816406 25.5625 1.796875 C 25.5625 1.777344 25.558594 1.757812 25.558594 1.742188 C 25.558594 1.722656 25.558594 1.703125 25.554688 1.6875 C 25.550781 1.667969 25.550781 1.648438 25.546875 1.632812 C 25.542969 1.59375 25.535156 1.558594 25.53125 1.523438 C 25.523438 1.492188 25.515625 1.457031 25.507812 1.425781 C 25.503906 1.410156 25.5 1.398438 25.496094 1.382812 C 25.492188 1.367188 25.488281 1.355469 25.484375 1.339844 C 25.476562 1.316406 25.46875 1.289062 25.460938 1.269531 C 25.453125 1.246094 25.445312 1.230469 25.4375 1.214844 C 25.425781 1.183594 25.417969 1.167969 25.417969 1.167969 C 25.417969 1.167969 25.425781 1.183594 25.4375 1.214844 C 25.445312 1.230469 25.453125 1.246094 25.460938 1.269531 C 25.46875 1.289062 25.476562 1.3125 25.488281 1.339844 C 25.492188 1.351562 25.496094 1.367188 25.5 1.382812 C 25.503906 1.394531 25.507812 1.410156 25.511719 1.425781 C 25.519531 1.457031 25.53125 1.488281 25.535156 1.523438 C 25.542969 1.558594 25.550781 1.59375 25.554688 1.628906 C 25.558594 1.648438 25.5625 1.667969 25.5625 1.683594 C 25.566406 1.703125 25.566406 1.722656 25.570312 1.738281 C 25.570312 1.757812 25.574219 1.777344 25.574219 1.796875 C 25.574219 1.8125 25.574219 1.832031 25.578125 1.851562 C 25.578125 1.886719 25.578125 1.925781 25.578125 1.957031 C 25.578125 1.992188 25.574219 2.027344 25.574219 2.058594 C 25.570312 2.089844 25.570312 2.121094 25.566406 2.148438 C 25.558594 2.207031 25.554688 2.25 25.546875 2.285156 C 25.542969 2.300781 25.542969 2.3125 25.539062 2.320312 C 25.539062 2.328125 25.539062 2.332031 25.535156 2.332031 C 25.597656 2.429688 25.652344 2.53125 25.707031 2.632812 C 25.738281 2.6875 25.765625 2.738281 25.792969 2.792969 C 25.820312 2.847656 25.847656 2.90625 25.875 2.960938 C 25.925781 3.070312 25.980469 3.179688 26.042969 3.285156 C 26.085938 3.359375 26.132812 3.433594 26.179688 3.503906 C 26.183594 3.496094 26.1875 3.484375 26.195312 3.46875 C 26.210938 3.425781 26.230469 3.363281 26.253906 3.289062 C 26.265625 3.25 26.277344 3.210938 26.289062 3.164062 C 26.300781 3.121094 26.3125 3.074219 26.324219 3.027344 C 26.332031 2.980469 26.34375 2.929688 26.351562 2.878906 C 26.359375 2.828125 26.367188 2.777344 26.375 2.722656 C 26.382812 2.671875 26.386719 2.617188 26.386719 2.566406 C 26.390625 2.539062 26.390625 2.515625 26.390625 2.488281 C 26.390625 2.464844 26.390625 2.4375 26.390625 2.414062 C 26.390625 2.363281 26.386719 2.316406 26.382812 2.273438 C 26.378906 2.226562 26.371094 2.183594 26.363281 2.144531 C 26.359375 2.125 26.359375 2.109375 26.355469 2.089844 C 26.351562 2.074219 26.34375 2.054688 26.339844 2.039062 C 26.335938 2.023438 26.332031 2.011719 26.328125 1.996094 C 26.324219 1.984375 26.320312 1.972656 26.316406 1.960938 C 26.308594 1.941406 26.300781 1.921875 26.296875 1.910156 C 26.296875 1.910156 26.296875 1.910156 26.296875 1.90625 C 26.296875 1.90625 26.296875 1.910156 26.296875 1.910156 C 26.300781 1.921875 26.308594 1.941406 26.316406 1.960938 C 26.320312 1.972656 26.324219 1.984375 26.328125 1.996094 C 26.332031 2.011719 26.335938 2.023438 26.339844 2.039062 C 26.34375 2.054688 26.351562 2.074219 26.355469 2.089844 C 26.359375 2.109375 26.363281 2.125 26.367188 2.144531 C 26.375 2.183594 26.378906 2.226562 26.382812 2.273438 C 26.390625 2.316406 26.390625 2.363281 26.394531 2.414062 C 26.394531 2.4375 26.394531 2.464844 26.394531 2.488281 C 26.394531 2.515625 26.390625 2.539062 26.390625 2.566406 C 26.386719 2.617188 26.386719 2.671875 26.378906 2.722656 C 26.375 2.777344 26.367188 2.828125 26.359375 2.878906 C 26.351562 2.929688 26.339844 2.980469 26.332031 3.03125 C 26.3125 3.125 26.289062 3.214844 26.265625 3.292969 C 26.234375 3.40625 26.207031 3.488281 26.191406 3.523438 C 26.277344 3.648438 26.367188 3.769531 26.457031 3.882812 C 26.609375 4.066406 26.769531 4.242188 26.933594 4.398438 C 26.9375 4.398438 26.9375 4.398438 26.9375 4.402344 C 26.949219 4.394531 26.964844 4.382812 26.984375 4.363281 C 27.003906 4.347656 27.027344 4.328125 27.050781 4.300781 C 27.074219 4.277344 27.097656 4.246094 27.125 4.210938 C 27.148438 4.175781 27.171875 4.140625 27.195312 4.09375 C 27.214844 4.050781 27.238281 4.003906 27.25 3.953125 C 27.261719 3.925781 27.265625 3.898438 27.273438 3.875 C 27.277344 3.859375 27.277344 3.847656 27.28125 3.832031 C 27.285156 3.820312 27.285156 3.804688 27.289062 3.789062 C 27.289062 3.777344 27.292969 3.761719 27.292969 3.75 C 27.296875 3.734375 27.296875 3.71875 27.296875 3.707031 C 27.300781 3.675781 27.300781 3.648438 27.300781 3.621094 L 27.300781 3.578125 L 27.296875 3.535156 C 27.296875 3.503906 27.292969 3.476562 27.289062 3.449219 C 27.285156 3.421875 27.28125 3.394531 27.277344 3.363281 C 27.273438 3.335938 27.265625 3.3125 27.261719 3.285156 C 27.257812 3.257812 27.25 3.230469 27.242188 3.207031 C 27.234375 3.183594 27.226562 3.15625 27.21875 3.132812 C 27.210938 3.109375 27.207031 3.085938 27.199219 3.066406 C 27.191406 3.042969 27.183594 3.023438 27.175781 3.003906 C 27.160156 2.960938 27.144531 2.925781 27.128906 2.894531 C 27.125 2.875 27.117188 2.859375 27.109375 2.847656 C 27.105469 2.832031 27.097656 2.820312 27.09375 2.808594 C 27.070312 2.765625 27.058594 2.738281 27.058594 2.738281 C 27.058594 2.738281 27.070312 2.765625 27.09375 2.808594 C 27.097656 2.820312 27.105469 2.832031 27.113281 2.847656 C 27.117188 2.859375 27.125 2.875 27.132812 2.890625 C 27.144531 2.925781 27.164062 2.960938 27.175781 3 C 27.183594 3.019531 27.195312 3.042969 27.203125 3.0625 C 27.210938 3.085938 27.214844 3.109375 27.222656 3.132812 C 27.234375 3.15625 27.238281 3.179688 27.246094 3.207031 C 27.253906 3.230469 27.261719 3.257812 27.265625 3.28125 C 27.273438 3.308594 27.28125 3.335938 27.285156 3.363281 C 27.289062 3.390625 27.292969 3.417969 27.296875 3.449219 C 27.300781 3.476562 27.304688 3.503906 27.308594 3.53125 L 27.308594 3.621094 C 27.308594 3.648438 27.3125 3.679688 27.308594 3.707031 C 27.308594 3.722656 27.308594 3.734375 27.304688 3.75 C 27.304688 3.765625 27.300781 3.777344 27.300781 3.792969 C 27.296875 3.808594 27.296875 3.820312 27.292969 3.835938 C 27.289062 3.847656 27.289062 3.863281 27.285156 3.875 C 27.277344 3.902344 27.273438 3.929688 27.265625 3.957031 C 27.25 4.007812 27.230469 4.058594 27.207031 4.101562 C 27.1875 4.148438 27.160156 4.1875 27.136719 4.222656 C 27.113281 4.257812 27.085938 4.289062 27.0625 4.316406 C 27.039062 4.339844 27.015625 4.359375 26.996094 4.378906 C 26.976562 4.394531 26.960938 4.40625 26.953125 4.414062 C 27.175781 4.632812 27.40625 4.824219 27.625 4.988281 C 27.628906 4.988281 27.632812 4.988281 27.632812 4.988281 L 27.636719 4.996094 C 27.726562 5.0625 27.8125 5.125 27.898438 5.183594 C 28.046875 5.289062 28.1875 5.378906 28.316406 5.457031 C 28.441406 5.535156 28.550781 5.597656 28.644531 5.648438 C 28.832031 5.75 28.941406 5.800781 28.941406 5.800781 " fill-opacity="1" fill-rule="nonzero"/></g></g></g></svg>