<svg xmlns="http://www.w3.org/2000/svg" width="375" viewBox="0 0 375 375" height="375" version="1.0"><g fill="#272626"><g><g><path d="M 306.613281 0.585938 L 351.753906 0.585938 L 190.53125 -374.617188 L 187.601562 -374.617188 L 20.519531 0.585938 L 33.417969 0.585938 L 99.664062 -147.148438 L 242.710938 -147.148438 Z M 103.765625 -157.117188 L 172.359375 -311.300781 L 238.605469 -157.117188 Z M 103.765625 -157.117188" transform="translate(10.191 374.964)"/></g></g></g><path fill="#FFF" d="M 152.355469 280.789062 L 55.714844 195.824219 L 58.675781 324.433594 L 89.945312 293.921875 L 117.484375 353.011719 L 136.398438 344.128906 L 108.859375 285.167969 Z M 152.355469 280.789062"/><path fill="#272626" d="M 117.484375 357.515625 C 116.96875 357.515625 116.453125 357.386719 115.9375 357.257812 C 114.78125 356.875 113.878906 355.972656 113.363281 354.941406 L 88.53125 301.644531 L 61.890625 327.652344 C 60.605469 328.9375 58.675781 329.324219 57.003906 328.550781 C 55.328125 327.90625 54.300781 326.234375 54.171875 324.433594 L 51.210938 195.953125 C 51.210938 194.152344 52.242188 192.480469 53.785156 191.707031 C 55.457031 190.933594 57.386719 191.320312 58.675781 192.480469 L 155.316406 277.445312 C 156.601562 278.601562 157.117188 280.535156 156.601562 282.207031 C 156.085938 283.878906 154.542969 285.167969 152.742188 285.296875 L 115.550781 288.902344 L 140.386719 342.199219 C 141.417969 344.515625 140.515625 347.089844 138.199219 348.121094 L 119.285156 357.003906 C 118.769531 357.386719 118.125 357.515625 117.484375 357.515625 Z M 89.945312 289.417969 C 90.203125 289.417969 90.460938 289.417969 90.71875 289.546875 C 92.132812 289.800781 93.417969 290.703125 93.933594 292.121094 L 119.542969 347.089844 L 130.351562 342.070312 L 104.742188 286.96875 C 104.101562 285.683594 104.230469 284.136719 104.871094 282.851562 C 105.515625 281.5625 106.929688 280.789062 108.347656 280.535156 L 141.546875 277.1875 L 60.476562 205.867188 L 62.921875 313.875 L 86.726562 290.574219 C 87.628906 289.929688 88.785156 289.417969 89.945312 289.417969 Z M 89.945312 289.417969"/></svg>